<?xml version="1.0" encoding="utf-8"?>
<!-- Generator: Adobe Illustrator 23.0.3, SVG Export Plug-In . SVG Version: 6.00 Build 0)  -->
<svg version="1.1" id="Layer_1" xmlns="http://www.w3.org/2000/svg" xmlns:xlink="http://www.w3.org/1999/xlink" x="0px" y="0px"
	 viewBox="0 0 38.13 38.42" style="enable-background:new 0 0 38.13 38.42;" xml:space="preserve">
<style type="text/css">
	.st0{fill:#FFFFFF;stroke:#FFFFFF;stroke-width:1.3683;stroke-miterlimit:10;}
</style>
<g>
	<path class="st0" d="M2.97,2.9L2.7,3.18c-0.71,0.71-0.71,1.87,0,2.58L14.95,18c0.71,0.71,0.71,1.87,0,2.58L2.7,32.83
		c-0.71,0.71-0.71,1.87,0,2.58l0.27,0.27c0.71,0.71,1.87,0.71,2.58,0l15.1-15.1c0.71-0.71,0.71-1.87,0-2.58L5.55,2.9
		C4.84,2.19,3.68,2.19,2.97,2.9z"/>
	<path class="st0" d="M18.02,2.9l-0.27,0.27c-0.71,0.71-0.71,1.87,0,2.58L30,18c0.71,0.71,0.71,1.87,0,2.58L17.75,32.83
		c-0.71,0.71-0.71,1.87,0,2.58l0.27,0.27c0.71,0.71,1.87,0.71,2.58,0l15.1-15.1c0.71-0.71,0.71-1.87,0-2.58L20.6,2.9
		C19.89,2.19,18.73,2.19,18.02,2.9z"/>
</g>
</svg>
